<?xml version="1.0" encoding="UTF-8"?>
<!DOCTYPE svg PUBLIC "-//W3C//DTD SVG 1.1//EN" "http://www.w3.org/Graphics/SVG/1.1/DTD/svg11.dtd">
<svg xmlns="http://www.w3.org/2000/svg" version="1.1" width="512px" height="512px" style="shape-rendering:geometricPrecision; text-rendering:geometricPrecision; image-rendering:optimizeQuality; fill-rule:evenodd; clip-rule:evenodd" xmlns:xlink="http://www.w3.org/1999/xlink">
<g><path style="opacity:0.984" fill="#242b42" d="M 119.5,-0.5 C 127.167,-0.5 134.833,-0.5 142.5,-0.5C 146.5,2.16667 150.5,2.16667 154.5,-0.5C 162.5,-0.5 170.5,-0.5 178.5,-0.5C 195.7,3.6042 209.366,12.9375 219.5,27.5C 229.308,13.0091 242.642,3.67575 259.5,-0.5C 267.167,-0.5 274.833,-0.5 282.5,-0.5C 286.852,2.00888 291.186,2.00888 295.5,-0.5C 303.167,-0.5 310.833,-0.5 318.5,-0.5C 346.585,6.75651 363.085,24.7565 368,53.5C 368.5,74.164 368.667,94.8306 368.5,115.5C 391.502,115.333 414.502,115.5 437.5,116C 444.459,117.293 448.293,121.459 449,128.5C 449.667,141.5 449.667,154.5 449,167.5C 448.043,173.127 444.876,176.96 439.5,179C 430.84,179.5 422.173,179.666 413.5,179.5C 413.5,197.167 413.5,214.833 413.5,232.5C 440.169,232.333 466.835,232.5 493.5,233C 502.497,234.839 508.497,240.006 511.5,248.5C 511.5,280.5 511.5,312.5 511.5,344.5C 503.654,395.828 477.154,434.161 432,459.5C 431.895,471.881 431.228,484.214 430,496.5C 426.979,503.353 422.145,508.353 415.5,511.5C 398.833,511.5 382.167,511.5 365.5,511.5C 357.423,508.585 352.256,502.919 350,494.5C 349.501,488.509 349.334,482.509 349.5,476.5C 281.499,476.667 213.499,476.5 145.5,476C 82.7399,472.728 37.9065,442.895 11,386.5C 5.57792,372.8 1.74458,358.8 -0.5,344.5C -0.5,312.5 -0.5,280.5 -0.5,248.5C 2.50305,240.006 8.50305,234.839 17.5,233C 39.1641,232.5 60.8308,232.333 82.5,232.5C 72.4944,189.42 68.4944,145.753 70.5,101.5C 70.3902,83.1377 70.8902,64.8044 72,46.5C 78.462,21.2039 94.2953,5.53719 119.5,-0.5 Z M 365.5,179.5 C 367.486,196.802 368.153,214.468 367.5,232.5C 363.833,232.5 360.167,232.5 356.5,232.5C 361.12,215.111 364.12,197.444 365.5,179.5 Z"/></g>
<g><path style="opacity:0.961" fill="#232a41" d="M 441.5,-0.5 C 443.5,-0.5 445.5,-0.5 447.5,-0.5C 451.985,9.8074 456.485,20.1407 461,30.5C 471.275,35.7191 481.775,40.5524 492.5,45C 495.167,47.6667 495.167,50.3333 492.5,53C 482.5,57.3333 472.5,61.6667 462.5,66C 457.281,76.2746 452.448,86.7746 448,97.5C 445.084,99.0135 442.418,98.6801 440,96.5C 435.472,86.5825 431.139,76.5825 427,66.5C 416.851,62.004 406.684,57.504 396.5,53C 394.32,50.5823 393.987,47.9156 395.5,45C 405.833,40.5 416.167,36 426.5,31.5C 431.125,20.6084 436.125,9.94173 441.5,-0.5 Z"/></g>
<g><path style="opacity:1" fill="#c0c0c0" d="M 121.5,8.5 C 125.846,8.33432 130.179,8.50098 134.5,9C 120.205,17.9795 111.372,30.8129 108,47.5C 107.104,89.5144 107.437,131.514 109,173.5C 111.254,193.023 114.587,212.357 119,231.5C 129,271.5 139,311.5 149,351.5C 150.039,353.746 151.206,355.913 152.5,358C 144.833,358.667 137.167,358.667 129.5,358C 125.942,356.108 123.442,353.275 122,349.5C 111.511,308.542 101.177,267.542 91,226.5C 87.349,209.26 84.349,191.927 82,174.5C 80.4518,132.513 80.1185,90.5133 81,48.5C 86.7833,27.2195 100.283,13.8862 121.5,8.5 Z"/></g>
<g><path style="opacity:1" fill="#dfdfdf" d="M 358.5,115.5 C 355.5,115.5 352.5,115.5 349.5,115.5C 349.959,92.1142 349.459,68.7809 348,45.5C 341.416,29.2074 329.416,19.8741 312,17.5C 305.247,16.8991 303.247,19.5657 306,25.5C 322.926,26.2905 334.259,34.6238 340,50.5C 340.5,72.4975 340.667,94.4975 340.5,116.5C 335.356,119.31 332.689,123.644 332.5,129.5C 310.767,129.033 289.1,129.533 267.5,131C 264.667,132.5 262.5,134.667 261,137.5C 260.333,143.833 260.333,150.167 261,156.5C 262.954,161.96 266.788,164.96 272.5,165.5C 292.559,165.858 312.559,166.858 332.5,168.5C 333.277,172.408 335.277,175.408 338.5,177.5C 337.099,192.342 334.599,207.009 331,221.5C 320.191,262.737 309.691,304.07 299.5,345.5C 300.486,349.147 302.819,350.314 306.5,349C 307.893,347.829 308.727,346.329 309,344.5C 319.844,300.791 330.844,257.124 342,213.5C 344.161,202.202 345.994,190.869 347.5,179.5C 350.5,179.5 353.5,179.5 356.5,179.5C 354.555,192.506 352.388,205.506 350,218.5C 338.844,262.124 327.844,305.791 317,349.5C 315.969,352.539 314.135,355.039 311.5,357C 302.242,358.584 292.909,358.917 283.5,358C 281.04,356.542 278.873,354.709 277,352.5C 270.69,321.253 264.69,289.92 259,258.5C 254.948,248.799 247.614,243.799 237,243.5C 227.94,244.239 221.273,248.573 217,256.5C 210.499,287.003 204.833,317.669 200,348.5C 198.141,353.026 194.974,356.192 190.5,358C 181.398,358.942 172.398,358.609 163.5,357C 160.894,355.062 159.061,352.562 158,349.5C 144.875,298.666 132.541,247.666 121,196.5C 119.301,184.875 117.968,173.209 117,161.5C 116.333,123.833 116.333,86.1667 117,48.5C 125.556,20.1228 144.723,6.95617 174.5,9C 188.321,10.9923 199.488,17.4923 208,28.5C 212.174,34.8455 215.841,41.5122 219,48.5C 227.974,58.3282 238.474,60.1616 250.5,54C 252.333,52.1667 254.167,50.3333 256,48.5C 271.2,10.9795 297.366,0.146215 334.5,16C 346.551,23.7272 354.384,34.5606 358,48.5C 358.5,70.8308 358.667,93.1642 358.5,115.5 Z"/></g>
<g><path style="opacity:1" fill="#bdbdbe" d="M 261.5,8.5 C 265.846,8.33432 270.179,8.50098 274.5,9C 262.265,18.2432 253.431,30.0765 248,44.5C 238.405,52.0955 230.571,50.5955 224.5,40C 231.733,23.4004 244.066,12.9004 261.5,8.5 Z"/></g>
<g><path style="opacity:1" fill="#fdfdfd" d="M 158.5,17.5 C 161.85,17.335 165.183,17.5017 168.5,18C 170.673,19.8647 171.007,22.0314 169.5,24.5C 157.758,25.6216 147.924,30.6216 140,39.5C 138.059,43.0477 136.393,46.7143 135,50.5C 134.333,88.1667 134.333,125.833 135,163.5C 136.883,182.682 139.883,201.682 144,220.5C 154.829,262.814 165.162,305.148 175,347.5C 171.195,350.539 168.195,349.872 166,345.5C 152.554,294.052 140.221,242.385 129,190.5C 127.436,180.221 126.436,169.888 126,159.5C 125.333,122.833 125.333,86.1667 126,49.5C 130.781,32.5514 141.614,21.8847 158.5,17.5 Z"/></g>
<g><path style="opacity:1" fill="#c2c2c2" d="M 358.5,115.5 C 352.69,116.49 346.69,116.823 340.5,116.5C 340.667,94.4975 340.5,72.4975 340,50.5C 334.259,34.6238 322.926,26.2905 306,25.5C 303.247,19.5657 305.247,16.8991 312,17.5C 329.416,19.8741 341.416,29.2074 348,45.5C 349.459,68.7809 349.959,92.1142 349.5,115.5C 352.5,115.5 355.5,115.5 358.5,115.5 Z"/></g>
<g><path style="opacity:1" fill="#f4a92f" d="M 443.5,15.5 C 447.536,23.0772 451.203,30.9105 454.5,39C 462.249,42.1388 469.916,45.4721 477.5,49C 469.751,52.1388 462.084,55.4721 454.5,59C 451.19,66.6024 447.69,74.1024 444,81.5C 440.667,74.1667 437.333,66.8333 434,59.5C 426.545,55.8551 419.045,52.3551 411.5,49C 418.898,45.3104 426.398,41.8104 434,38.5C 437.661,31.0113 440.828,23.3446 443.5,15.5 Z"/></g>
<g><path style="opacity:1" fill="#b4bdd4" d="M 342.5,125.5 C 374.168,125.333 405.835,125.5 437.5,126C 438,126.5 438.5,127 439,127.5C 439.667,140.833 439.667,154.167 439,167.5C 438.5,168.667 437.667,169.5 436.5,170C 405.5,170.667 374.5,170.667 343.5,170C 342.667,169.167 341.833,168.333 341,167.5C 340.333,154.167 340.333,140.833 341,127.5C 341.717,126.956 342.217,126.289 342.5,125.5 Z"/></g>
<g><path style="opacity:1" fill="#d3dcf3" d="M 351.5,134.5 C 354.044,134.104 356.211,134.771 358,136.5C 358.667,144.167 358.667,151.833 358,159.5C 355.034,162.265 352.367,161.932 350,158.5C 349.333,151.167 349.333,143.833 350,136.5C 350.717,135.956 351.217,135.289 351.5,134.5 Z"/></g>
<g><path style="opacity:1" fill="#99a2b9" d="M 423.5,134.5 C 426.044,134.104 428.211,134.771 430,136.5C 430.667,143.833 430.667,151.167 430,158.5C 427.383,162.476 424.716,162.476 422,158.5C 421.333,151.167 421.333,143.833 422,136.5C 422.717,135.956 423.217,135.289 423.5,134.5 Z"/></g>
<g><path style="opacity:1" fill="#838ca3" d="M 271.5,139.5 C 291.66,138.503 311.993,138.17 332.5,138.5C 332.823,144.69 332.49,150.69 331.5,156.5C 331.5,150.833 331.5,145.167 331.5,139.5C 311.5,139.5 291.5,139.5 271.5,139.5 Z"/></g>
<g><path style="opacity:1" fill="#b6bfd6" d="M 271.5,139.5 C 291.5,139.5 311.5,139.5 331.5,139.5C 331.5,145.167 331.5,150.833 331.5,156.5C 311.497,156.667 291.497,156.5 271.5,156C 270.333,155.5 269.5,154.667 269,153.5C 268.333,149.5 268.333,145.5 269,141.5C 269.708,140.619 270.542,139.953 271.5,139.5 Z"/></g>
<g><path style="opacity:1" fill="#b7b8bd" d="M 272.5,165.5 C 292.5,165.5 312.5,165.5 332.5,165.5C 332.5,166.5 332.5,167.5 332.5,168.5C 312.559,166.858 292.559,165.858 272.5,165.5 Z"/></g>
<g><path style="opacity:1" fill="#c2c2c2" d="M 338.5,177.5 C 341.303,178.928 344.303,179.595 347.5,179.5C 345.994,190.869 344.161,202.202 342,213.5C 330.844,257.124 319.844,300.791 309,344.5C 308.727,346.329 307.893,347.829 306.5,349C 302.819,350.314 300.486,349.147 299.5,345.5C 309.691,304.07 320.191,262.737 331,221.5C 334.599,207.009 337.099,192.342 338.5,177.5 Z"/></g>
<g><path style="opacity:1" fill="#8891a8" d="M 377.5,179.5 C 377.5,215.167 377.5,250.833 377.5,286.5C 386.167,286.5 394.833,286.5 403.5,286.5C 394.682,287.493 385.682,287.827 376.5,287.5C 376.168,251.329 376.502,215.329 377.5,179.5 Z"/></g>
<g><path style="opacity:1" fill="#b6c0d6" d="M 377.5,179.5 C 386.167,179.5 394.833,179.5 403.5,179.5C 403.5,215.167 403.5,250.833 403.5,286.5C 394.833,286.5 386.167,286.5 377.5,286.5C 377.5,250.833 377.5,215.167 377.5,179.5 Z"/></g>
<g><path style="opacity:1" fill="#b31040" d="M 16.5,242.5 C 24.1739,242.334 31.8406,242.5 39.5,243C 38.2062,245.087 37.0395,247.254 36,249.5C 35.3333,278.167 35.3333,306.833 36,335.5C 41.5296,395.431 71.3629,438.265 125.5,464C 78.2867,455.797 43.7867,430.297 22,387.5C 15.4934,372.81 11.16,357.477 9,341.5C 8.33333,311.5 8.33333,281.5 9,251.5C 10.6416,247.7 13.1416,244.7 16.5,242.5 Z"/></g>
<g><path style="opacity:1" fill="#d22e5d" d="M 52.5,242.5 C 63.8333,242.5 75.1667,242.5 86.5,242.5C 94.8559,278.924 103.689,315.258 113,351.5C 118.229,364.619 127.895,369.952 142,367.5C 148.446,367.695 154.779,367.028 161,365.5C 162.225,365.862 163.391,366.362 164.5,367C 173.5,367.667 182.5,367.667 191.5,367C 199.893,364.941 205.393,359.775 208,351.5C 211.366,331.291 215.366,311.291 220,291.5C 223.841,312.53 227.841,333.53 232,354.5C 238.219,365.622 247.719,369.955 260.5,367.5C 266.622,367.702 272.622,367.036 278.5,365.5C 288.723,367.535 299.056,368.035 309.5,367C 318.333,364.833 323.833,359.333 326,350.5C 335.152,314.558 343.985,278.558 352.5,242.5C 357.5,242.5 362.5,242.5 367.5,242.5C 367.833,257.515 367.499,272.515 366.5,287.5C 358.133,290.368 352.633,296.034 350,304.5C 349.5,358.499 349.333,412.499 349.5,466.5C 288.832,466.667 228.166,466.5 167.5,466C 105.363,455.529 65.5292,420.029 48,359.5C 47.1291,353.479 46.1291,347.479 45,341.5C 44.3333,311.5 44.3333,281.5 45,251.5C 46.6416,247.7 49.1416,244.7 52.5,242.5 Z"/></g>
<g><path style="opacity:1" fill="#d22d5d" d="M 432.5,447.5 C 431.521,444.375 431.187,441.042 431.5,437.5C 466.798,415.294 487.298,383.294 493,341.5C 493.667,312.167 493.667,282.833 493,253.5C 490.333,250.833 487.667,250.833 485,253.5C 484.667,282.167 484.333,310.833 484,339.5C 479.498,376.875 461.998,406.208 431.5,427.5C 431.832,387.663 431.499,347.996 430.5,308.5C 429.661,297.655 423.995,290.655 413.5,287.5C 412.501,272.515 412.167,257.515 412.5,242.5C 439.502,242.333 466.502,242.5 493.5,243C 497.667,244.5 500.5,247.333 502,251.5C 502.667,281.833 502.667,312.167 502,342.5C 495.659,388.944 472.492,423.944 432.5,447.5 Z"/></g>
<g><path style="opacity:1" fill="#f04b7b" d="M 55.5,251.5 C 58.0444,251.104 60.2111,251.771 62,253.5C 62.3333,282.5 62.6667,311.5 63,340.5C 73.2267,400.727 108.393,436.561 168.5,448C 174.167,448.333 179.833,448.667 185.5,449C 188.95,451.158 189.283,453.658 186.5,456.5C 139.215,457.274 102.049,438.274 75,399.5C 63.8465,381.709 56.8465,362.376 54,341.5C 53.3333,312.167 53.3333,282.833 54,253.5C 54.7172,252.956 55.2172,252.289 55.5,251.5 Z"/></g>
<g><path style="opacity:1" fill="#b51040" d="M 431.5,437.5 C 431.5,434.167 431.5,430.833 431.5,427.5C 461.998,406.208 479.498,376.875 484,339.5C 484.333,310.833 484.667,282.167 485,253.5C 487.667,250.833 490.333,250.833 493,253.5C 493.667,282.833 493.667,312.167 493,341.5C 487.298,383.294 466.798,415.294 431.5,437.5 Z"/></g>
<g><path style="opacity:1" fill="#bfc0c0" d="M 233.5,252.5 C 240.789,251.644 246.289,254.31 250,260.5C 255.989,290.763 261.655,321.097 267,351.5C 267.557,353.615 268.391,355.615 269.5,357.5C 262.189,358.665 254.856,358.831 247.5,358C 244.333,356.167 241.833,353.667 240,350.5C 234.703,321.681 229.536,292.848 224.5,264C 225.451,258.55 228.451,254.717 233.5,252.5 Z"/></g>
<g><path style="opacity:1" fill="#0078a7" d="M 366.5,296.5 C 382.17,296.333 397.837,296.5 413.5,297C 416.667,298.833 419.167,301.333 421,304.5C 421.667,367.167 421.667,429.833 421,492.5C 419.833,497.667 416.667,500.833 411.5,502C 397.167,502.667 382.833,502.667 368.5,502C 364,500.167 360.833,497 359,492.5C 358.333,430.167 358.333,367.833 359,305.5C 360.642,301.7 363.142,298.7 366.5,296.5 Z"/></g>
<g><path style="opacity:1" fill="#1d96c5" d="M 370.5,304.5 C 372.582,304.472 374.416,305.139 376,306.5C 376.667,368.167 376.667,429.833 376,491.5C 372.988,494.25 370.321,493.917 368,490.5C 367.333,429.5 367.333,368.5 368,307.5C 369.045,306.627 369.878,305.627 370.5,304.5 Z"/></g>
<g><path style="opacity:1" fill="#005b8a" d="M 405.5,305.5 C 408.079,305.083 410.246,305.75 412,307.5C 412.667,368.833 412.667,430.167 412,491.5C 408.988,494.25 406.321,493.917 404,490.5C 403.333,429.5 403.333,368.5 404,307.5C 404.717,306.956 405.217,306.289 405.5,305.5 Z"/></g>
<g><path style="opacity:1" fill="#b42c57" d="M 430.5,308.5 C 431.499,347.996 431.832,387.663 431.5,427.5C 431.5,430.833 431.5,434.167 431.5,437.5C 431.187,441.042 431.521,444.375 432.5,447.5C 432.44,448.043 432.107,448.376 431.5,448.5C 430.5,401.838 430.167,355.171 430.5,308.5 Z"/></g>
</svg>
